<?xml version="1.0" encoding="UTF-8" standalone="no"?>
<svg
   xmlns:dc="http://purl.org/dc/elements/1.1/"
   xmlns:cc="http://creativecommons.org/ns#"
   xmlns:rdf="http://www.w3.org/1999/02/22-rdf-syntax-ns#"
   xmlns:svg="http://www.w3.org/2000/svg"
   xmlns="http://www.w3.org/2000/svg"
   viewBox="0 0 450 149"
   height="149"
   width="450"
   id="svg89"
   version="1.1">
  <metadata
     id="metadata95">
    <rdf:RDF>
      <cc:Work
         rdf:about="">
        <dc:format>image/svg+xml</dc:format>
        <dc:type
           rdf:resource="http://purl.org/dc/dcmitype/StillImage" />
        <dc:title></dc:title>
      </cc:Work>
    </rdf:RDF>
  </metadata>
  <defs
     id="defs93" />
  <g
     transform="translate(0.28329298,0.86198547)"
     id="g3788">
    <path
       id="path3792"
       d="m 0.07894734,132.75 c 0.04342105,-8.9375 0.30592105,-15.6875 0.58333333,-15 C 1.0599399,118.7355 18.238342,119 81.846683,119 H 162.5267 l 1.21513,-5.11542 C 166.94735,100.39009 183.47557,81.104611 202,69.244117 212.88963,62.2719 217.55877,58.603043 219.69875,55.337018 c 2.28071,-3.480806 3.30047,-9.406586 2.3466,-13.635938 -0.88252,-3.912992 -6.90196,-14.701079 -8.20278,-14.701079 -0.40416,0 0.14091,2.545448 1.21129,5.65655 4.58961,13.339936 0.77028,19.318611 -12.35352,19.337873 -5.52856,0.0081 -9.14821,2.299537 -11.48482,7.270472 -1.12397,2.391134 -2.64476,4.819729 -3.37955,5.396878 -2.25196,1.768845 -6.05079,2.292626 -8.24764,1.137182 -4.99413,-2.626681 -4.76847,-5.032018 1.86445,-19.873155 5.88193,-13.160802 10.27866,-19.21682 18.3799,-25.316319 5.87575,-4.423903 6.46622,-6.77175 3.0807,-12.2496276 l -2.08661,-3.3762141 2.71722,1.0330856 c 1.49447,0.5681971 3.98089,1.9328931 5.52536,3.0326577 2.75623,1.9626084 2.78044,2.0658644 1.30979,5.5856314 l -1.49835,3.58606 3.10762,-2.21282 c 4.11481,-2.930008 8.05345,-2.163661 15.93725,3.100938 7.51752,5.02001 11.21823,9.396403 15.61607,18.46728 8.51459,17.561988 6.59277,38.656293 -5.74928,63.105377 -2.31613,4.58815 -5.91003,10.5867 -7.98644,13.33012 L 226.03071,119 H 338.01535 450 v 15 c 0,9.33333 -0.37778,15 -1,15 -0.55,0 -1,-0.45 -1,-1 0,-0.55 -1.125,-1 -2.5,-1 -2.38889,0 -2.5,-0.26667 -2.5,-6 0,-3.33333 -0.44444,-6 -1,-6 -0.57143,0 -1,3 -1,7 v 7 h -2.80317 c -2.59139,0 -2.97489,-0.5332 -5.07631,-7.0579 -1.35375,-4.20325 -2.74786,-6.90406 -3.44683,-6.67754 -0.64553,0.20919 -2.23942,3.38524 -3.54197,7.05789 -2.23799,6.31017 -2.54058,6.67765 -5.5,6.67937 l -3.13172,0.002 0.33882,-6.00182 c 0.23764,-4.20977 0.7426,-6.002 1.69098,-6.002 0.74369,0 1.63028,-0.45 1.9702,-1 0.38401,-0.62134 -1.50929,-1 -5,-1 -3.49071,0 -5.38401,0.37866 -5,1 0.33992,0.55 1.49148,1 2.55902,1 1.70564,0 1.94098,0.72748 1.94098,6 v 6 h -4.5 -4.5 v -7 c 0,-4 -0.42857,-7 -1,-7 -0.57143,0 -1,3 -1,7 v 7 h -3.2992 c -3.15531,0 -3.2821,-0.1465 -2.90705,-3.35906 0.32049,-2.74517 0.01,-3.45904 -1.6998,-3.90612 -1.15058,-0.30088 -2.34396,-0.13931 -2.65197,0.35906 -0.30801,0.49837 0.14154,0.90612 0.999,0.90612 0.89235,0 1.55902,0.85524 1.55902,2 0,1.42029 -0.66667,2 -2.3,2 -3.06759,0 -4.7,-1.79807 -4.7,-5.17695 0,-3.17379 3.73082,-6.24731 6.3591,-5.23875 0.9122,0.35005 1.6409,0.13808 1.6409,-0.47731 0,-1.64253 -5.22144,-1.34061 -7.77749,0.44971 -3.125,2.18884 -3.125,8.69776 0,10.8866 2.13288,1.49393 2.01191,1.5567 -3,1.5567 H 382 v -7 c 0,-4 -0.42857,-7 -1,-7 -0.57143,0 -1,3 -1,7 v 7 h -5.22251 c -4.89069,0 -5.08855,-0.0938 -3.11426,-1.47667 2.69785,-1.88965 3.71556,-5.9369 2.21127,-8.79385 -1.6239,-3.0841 -2.79861,-3.6965 -7.1245,-3.71417 L 363,135 v 7 7 h -10.7992 -10.7992 l 0.39196,-3.35742 c 0.29228,-2.50357 -0.0495,-3.52682 -1.34393,-4.02353 -0.95474,-0.36637 -2.00898,-0.36893 -2.34276,-0.006 -0.33378,0.36324 -0.0444,0.86133 0.64313,1.10687 0.6875,0.24553 1.25,1.30893 1.25,2.36309 0,1.33334 -0.7,1.91667 -2.3,1.91667 -3.06759,0 -4.7,-1.79807 -4.7,-5.17695 0,-3.42931 3.8599,-6.31968 7.07627,-5.29884 1.47038,0.46668 1.95269,0.33167 1.48994,-0.41708 C 340.44702,134.29624 335.15183,134.84817 333,137 c -1.11111,1.11111 -2,3.33333 -2,5 0,1.66667 0.88889,3.88889 2,5 l 2,2 h -5 -5 l -0.163,-7.25 -0.16299,-7.25 -0.58701,5.49372 -0.587,5.49373 -3.35425,-5.24373 C 318.30092,137.35968 316.38842,135 315.89575,135 315.40309,135 315,138.15 315,142 v 7 h -3.45619 -3.45619 l -0.34511,-7.25 -0.34512,-7.25 -0.19869,7.25 L 307,149 h -4.5 -4.5 v -6 c 0,-5.33333 0.22222,-6 2,-6 1.1,0 2,-0.45 2,-1 0,-0.55 -2.25,-1 -5,-1 -2.75,0 -5,0.45 -5,1 0,0.55 0.9,1 2,1 1.77778,0 2,0.66667 2,6 v 6 h -4.5 c -2.475,0 -4.5,-0.45 -4.5,-1 0,-0.55 -1.3813,-1 -3.06955,-1 -2.60892,0 -3.0216,-0.33668 -2.75,-2.24357 0.22562,-1.58412 1.20134,-2.41752 3.31955,-2.8354 l 3,-0.59182 -2.99145,-0.41461 C 280.22154,140.32044 279.72798,137 283.92668,137 285.617,137 287,136.55 287,136 c 0,-0.55 -1.575,-1 -3.5,-1 H 280 v 7 c 0,6.78935 -0.0748,7 -2.48581,7 -1.78733,0 -3.22084,-1.11071 -5.10168,-3.95284 l -2.61586,-3.95284 2.16977,-3.04716 c 2.89574,-4.0667 1.24856,-3.92088 -2.18952,0.19383 l -2.7231,3.25901 -0.0269,-3.25 C 267.01211,136.4625 266.55,135 266,135 c -0.57143,0 -1,3 -1,7 0,6.63029 -0.12103,7 -2.29165,7 -1.65179,0 -2.73623,-0.98083 -3.88385,-3.51277 -0.87571,-1.93202 -1.19446,-3.75858 -0.70835,-4.05902 1.49044,-0.92114 0.98014,-5.17728 -0.69794,-5.82122 C 256.54823,135.27314 254.74823,135 253.41821,135 251.0909,135 251,135.26313 251,142 v 7 h -2.80317 c -2.59139,0 -2.97489,-0.5332 -5.07631,-7.0579 -1.25023,-3.88184 -2.7496,-6.89907 -3.33194,-6.70496 -0.58233,0.19411 -2.17407,3.37016 -3.5372,7.05789 -2.09136,5.65782 -2.844,6.70497 -4.81921,6.70497 -2.19088,0 -2.35973,-0.42718 -2.63648,-6.6703 -0.17428,-3.93153 -0.77206,-6.8276 -1.45588,-7.0534 -0.64372,-0.21255 -2.05004,1.97781 -3.15908,4.9203 l -1.99887,5.3034 -1.08295,-2.7941 c -0.59562,-1.53676 -1.36032,-3.89926 -1.69934,-5.25 -0.92461,-3.68397 -3.39736,-3.10822 -3.41058,0.7941 -0.006,1.7875 -0.28993,4.9375 -0.63084,7 l -0.61983,3.75 h -9.86916 C 198.95639,149 195,148.59912 195,148 c 0,-0.55 -1.35,-1 -3,-1 -2.5115,0 -3,-0.39627 -3,-2.43358 0,-1.88715 0.61747,-2.52711 2.75,-2.85017 l 2.75,-0.41659 -2.75,-0.14983 C 187.98717,140.94482 187.74953,137 191.5,137 c 1.375,0 2.5,-0.45 2.5,-1 0,-0.55 -1.575,-1 -3.5,-1 H 187 v 7 7 h -5.22251 c -5.01191,0 -5.13288,-0.0628 -3,-1.5567 C 180.4091,146.30047 181,144.8794 181,142.09828 181,137.34526 178.57859,135 173.67126,135 H 170 v 7 7 h -11.7 c -9.1,0 -11.43333,-0.26667 -10.5,-1.2 2.0723,-2.0723 1.31464,-4.82822 -1.81352,-6.59651 -3.41924,-1.93284 -3.54402,-4.74357 -0.20527,-4.62409 1.22033,0.0437 2.21879,-0.29383 2.21879,-0.75 0,-1.42212 -4.6908,-0.90689 -5.98943,0.65787 -1.63911,1.975 -0.64678,4.26573 2.46137,5.6819 C 148.14245,143.84156 147.83389,147 144,147 c -1.65,0 -3,0.45 -3,1 0,0.55 -1.09905,1 -2.44233,1 -2.14246,0 -2.71915,-0.85947 -4.69684,-7 -1.23997,-3.85 -2.81497,-7 -3.5,-7 -0.68502,0 -2.26002,3.15 -3.5,7 -2.08241,6.4657 -2.46846,7 -5.05766,7 H 119 v -7 c 0,-4.3539 -0.40903,-7 -1.08206,-7 -0.70467,0 -0.96625,2.44215 -0.75,7.00225 l 0.33206,7.00226 -3.0492,-0.002 c -2.87125,-0.002 -3.02631,-0.19828 -2.65705,-3.36131 0.32049,-2.74517 0.01,-3.45904 -1.6998,-3.90612 -1.15058,-0.30088 -2.34396,-0.13931 -2.65197,0.35906 -0.30801,0.49837 0.14154,0.90612 0.999,0.90612 0.89235,0 1.55902,0.85524 1.55902,2 0,2.87354 -5.50102,2.80086 -7.04985,-0.0931 -2.35327,-4.39712 2.0681,-9.98829 6.54117,-8.27182 C 110.32109,136.95346 111,136.71583 111,136.10699 111,135.49814 109.45766,135 107.57258,135 c -2.51163,0 -3.9812,0.70402 -5.5,2.63486 -2.614607,3.32393 -2.614607,5.40635 0,8.73028 L 104.14516,149 H 99.57258 C 97.057661,149 95,148.55 95,148 c 0,-0.55 -1.125,-1 -2.5,-1 -1.981804,0 -2.5,-0.50443 -2.5,-2.43358 0,-1.88715 0.617472,-2.52711 2.75,-2.85017 l 2.75,-0.41659 -2.75,-0.14983 C 88.987174,140.94482 88.749525,137 92.5,137 c 1.375,0 2.5,-0.45 2.5,-1 0,-0.55 -1.575,-1 -3.5,-1 H 88 v 7 7 H 83.5 79 v -6 c 0,-5.33333 0.222222,-6 2,-6 1.1,0 2,-0.45 2,-1 0,-0.55 -2.25,-1 -5,-1 -2.75,0 -5,0.45 -5,1 0,0.55 0.9,1 2,1 1.777778,0 2,0.66667 2,6 v 6 h -3.303167 c -3.210834,0 -3.366707,-0.19729 -5.576314,-7.0579 -1.353748,-4.20325 -2.747857,-6.90406 -3.446833,-6.67754 -0.645527,0.20919 -2.239412,3.38524 -3.541966,7.05789 -1.920429,5.4148 -2.7724,6.67755 -4.50531,6.67755 -2.669048,0 -4.845816,-5.70506 -3.182736,-8.34159 1.545857,-2.45069 -0.531343,-5.09731 -4.294523,-5.47177 L 46,134.87328 V 141.93664 149 l -4.75,0.002 -4.75,0.002 0.338821,-6.00182 C 37.076465,138.79223 37.581418,137 38.529804,137 c 0.743689,0 1.630277,-0.45 1.970196,-1 0.380914,-0.61633 -1.322949,-1 -4.440983,-1 C 33.276558,135 31,135.45 31,136 c 0,0.55 0.9,1 2,1 1.777778,0 2,0.66667 2,6 v 6 l -5.75,-0.0789 c -3.1625,-0.0434 -5.1875,-0.30592 -4.5,-0.58333 2.326751,-0.93887 1.311636,-4.80109 -1.990985,-7.57514 C 20.039429,138.4783 19.748278,137.86139 21,137.03546 c 0.825,-0.54437 2.2875,-0.7447 3.25,-0.44519 0.9625,0.2995 1.75,0.0642 1.75,-0.52283 0,-2.09603 -5.873153,-1.17292 -7.097937,1.11561 -1.211022,2.26281 -0.383904,3.39631 4.654665,6.37886 C 26.049909,145.03768 24.52329,147 20.881966,147 c -1.745356,0 -2.741529,0.41821 -2.381966,1 0.360575,0.58342 -0.656282,1 -2.440983,1 C 14.376558,149 13,148.55 13,148 c 0,-0.55 -1.381298,-1 -3.069551,-1 -2.6089175,0 -3.0215974,-0.33668 -2.75,-2.24357 0.2236603,-1.57032 1.2197897,-2.43505 3.319551,-2.88168 l 3,-0.63812 -3.25,-0.11832 C 7.7061049,141.02571 7,140.56547 7,139 c 0,-1.55556 0.6666667,-2 3,-2 1.65,0 3,-0.45 3,-1 0,-0.55 -1.836927,-1 -4.0820591,-1 H 4.8358817 L 5.1679409,142.00225 5.5,149.00451 2.75,149.00225 -2.5977783e-8,149 Z M 47,145.93045 c 0,-2.58612 0.343754,-3.01923 2.182681,-2.75 1.401083,0.20512 2.444387,1.3043 2.913517,3.06955 0.674489,2.53798 0.506206,2.75 -2.182681,2.75 C 47.328272,149 47,148.65415 47,145.93045 Z M 61.015313,148.25 c 0.03067,-1.50232 1.533523,-2.93775 3.629376,-3.46656 1.586161,-0.4002 2.426955,0.0784 3.228561,1.83772 1.042542,2.28813 0.932161,2.37884 -2.894689,2.37884 -2.188208,0 -3.97167,-0.3375 -3.963248,-0.75 z m 66.175057,-1 c 0.23083,-1.19861 1.27363,-1.75 3.30963,-1.75 2.036,0 3.0788,0.55139 3.30963,1.75 0.27122,1.40835 -0.37491,1.75 -3.30963,1.75 -2.93472,0 -3.58085,-0.34165 -3.30963,-1.75 z M 217,144 c 0,-5.56187 0.57135,-6.25763 2.01677,-2.4559 2.30082,6.05163 2.31808,7.4559 0.0916,7.4559 C 217.24499,149 217,148.41903 217,144 Z m 6.55624,2.75 c 0.38006,-1.2375 1.24617,-3.6 1.9247,-5.25 1.2284,-2.98716 1.23536,-2.97752 1.62637,2.25062 0.36922,4.93677 0.25417,5.25059 -1.9247,5.25 -1.9412,-5.2e-4 -2.20521,-0.36586 -1.62637,-2.25062 z m 12.45907,1.5 c 0.0341,-1.67183 1.61589,-3.06337 3.86126,-3.39694 1.73303,-0.25746 2.60436,0.25621 3.21778,1.89694 0.78386,2.09663 0.57074,2.25 -3.12657,2.25 -2.18228,0 -3.96089,-0.3375 -3.95247,-0.75 z M 253,146 c 0,-3.78563 2.64225,-4.07114 4.02475,-0.4349 1.3135,3.45477 1.32232,3.4349 -1.52475,3.4349 -2.11111,0 -2.5,-0.46667 -2.5,-3 z m 14,0.059 c 0,-4.23183 1.21615,-4.38491 3.77875,-0.47562 l 2.23964,3.4166 h -3.0092 C 267.34573,149 267,148.66211 267,146.05902 Z m 49.84651,-2.05964 c -0.19058,-2.75034 -0.12151,-4.99688 0.15349,-4.9923 0.42627,0.007 4.82909,6.98337 5.83333,9.24292 0.18334,0.4125 -1.01073,0.75 -2.65348,0.75 -2.87137,0 -3.00022,-0.19329 -3.33334,-5.00062 z m 109.1688,4.25062 c 0.0307,-1.50232 1.53353,-2.93775 3.62938,-3.46656 1.58616,-0.4002 2.42695,0.0784 3.22856,1.83772 1.04254,2.28813 0.93216,2.37884 -2.89469,2.37884 -2.18821,0 -3.97167,-0.3375 -3.96325,-0.75 z M 172,142.05902 c 0,-5.45204 0.57543,-6.24432 3.90318,-5.37409 C 181.2699,138.08836 180.03772,147 174.47695,147 172.17522,147 172,146.65047 172,142.05902 Z m 193,-0.0904 c 0,-5.51623 1.367,-6.91294 4.91005,-5.01676 C 374.68556,139.50763 373.2351,147 367.96482,147 365.07124,147 365,146.87911 365,141.96862 Z M 63.393011,141.41821 C 63.726855,140.54823 64,139.39667 64,138.8592 c 0,-1.62992 1.722509,-0.0283 2.285674,2.12522 0.399557,1.5279 0.03995,2.01558 -1.486282,2.01558 -1.425087,0 -1.836015,-0.46218 -1.406381,-1.58179 z M 129,142.08179 c 0,-0.50502 0.28762,-1.66775 0.63916,-2.58385 0.50987,-1.32869 0.81021,-1.39581 1.48469,-0.33179 1.31388,2.0727 1.0273,3.83385 -0.62385,3.83385 -0.825,0 -1.5,-0.4132 -1.5,-0.91821 z m 109.39301,-0.66358 C 238.72686,140.54823 239,139.39667 239,138.8592 c 0,-1.62992 1.72251,-0.0283 2.28567,2.12522 0.39956,1.5279 0.0399,2.01558 -1.48628,2.01558 -1.42509,0 -1.83601,-0.46218 -1.40638,-1.58179 z m 190,0 C 428.72686,140.54823 429,139.39667 429,138.8592 c 0,-1.62992 1.72251,-0.0283 2.28567,2.12522 0.39956,1.5279 0.04,2.01558 -1.48628,2.01558 -1.42509,0 -1.83601,-0.46218 -1.40638,-1.58179 z M 47,139.05902 c 0,-2.35618 1.275166,-3.2744 3.409758,-2.45528 C 53.079093,137.62806 52.381308,141 49.5,141 47.692005,141 47,140.46273 47,139.05902 Z M 253,138.5 c 0,-2.78742 2.06521,-3.33128 3.96365,-1.0438 1.51243,1.82237 0.52991,3.5438 -2.02267,3.5438 C 253.53727,141 253,140.308 253,138.5 Z m 88.25,-22.24995 C 281.7125,116.10761 233,115.72505 233,115.39991 c 0,-0.32514 0.84423,-1.78564 1.87606,-3.24554 3.87561,-5.48348 11.21106,-21.412776 13.75871,-29.877741 2.17292,-7.219861 2.6613,-10.905145 2.75334,-20.776628 0.12268,-13.156883 -0.99246,-17.969054 -6.67205,-28.792005 C 239.61494,22.987381 224.47753,11.000001 217.30366,11.000001 216.03665,11.000001 215,10.596912 215,10.104247 215,8.460384 205.50374,3.088818 199.96709,1.6008749 195.07735,0.28678316 207.99104,0.12467283 322.25,0.0658117 L 450,5.911395e-7 V 58.500001 c 0,32.175 -0.1125,58.389529 -0.25,58.254509 -0.1375,-0.13502 -48.9625,-0.36203 -108.5,-0.50446 z m -67.01557,-37.500049 0.26557,-28.25 2.38691,-0.337492 c 1.3128,-0.185621 2.76841,0.264379 3.23469,1 0.46627,0.735621 0.85467,13.620552 0.86309,28.633182 L 281,107.09138 287.75,106.79569 294.5,106.5 295,78.512981 c 0.46307,-25.919855 0.63281,-28.012543 2.29804,-28.332576 C 301.79206,49.316722 302,50.620765 302,79.668136 v 27.423244 l 6.75,-0.29569 6.75,-0.29569 0.26649,-26.83191 c 0.28676,-28.873553 -0.15722,-32.602126 -4.4961,-37.758595 -4.74233,-5.635935 -13.98826,-7.658108 -20.23801,-4.42624 -2.5352,1.311004 -3.28054,1.311004 -6.41822,0 -9.33161,-3.898996 -20.05395,0.577352 -23.55054,9.831846 C 260.40307,49.0634 260,60.905792 260,78.565101 V 107 h 6.98443 6.98442 z M 339,100 v -6.999999 h 3.45431 3.45431 l 0.29569,6.75 L 346.5,106.5 l 6.75,0.29569 6.75,0.29569 V 77.94682 c 0,-32.548016 -0.20481,-33.713044 -6.81288,-38.753265 -3.02901,-2.310336 -4.49242,-2.693554 -10.28595,-2.693554 -5.26239,0 -7.36455,0.455464 -9.51605,2.061789 -3.98853,2.977863 -6.38921,6.538217 -7.42765,11.015605 -1.04055,4.486547 -1.30318,55.743555 -0.2908,56.755935 0.36666,0.36667 3.51666,0.66667 7,0.66667 H 339 Z m 0.66667,-21.666666 C 339.3,77.966668 339,72.202676 339,65.524464 c 0,-12.92196 0.93453,-16.067827 4.5661,-15.370714 1.78798,0.343219 1.95483,1.445491 2.21136,14.60874 l 0.27745,14.237511 h -2.86079 c -1.57343,0 -3.16079,-0.3 -3.52745,-0.666667 z M 393,79.000001 v -28 h 5.54569 5.54569 l -0.29569,-6.75 -0.29569,-6.75 L 386.25,37.226387 369,36.952773 v 7.023614 7.023614 h 5 5 v 27.333333 c 0,15.033334 0.3,27.633336 0.66667,27.999996 0.36666,0.36667 3.51666,0.66667 7,0.66667 H 393 Z m 47.79569,20.75 0.29569,-6.75 H 432.54569 424 v -3.5 -3.5 h 7 7 v -7 -7 h -7 -7 v -10.5 -10.5 h 8.5 8.5 v -7 -7 H 425.5 410 V 72.026047 107.05209 L 425.25,106.77605 440.5,106.5 Z M -2.5977783e-8,58.000001 V 5.911395e-7 H 96.030551 192.0611 L 195.28055,3.6422055 c 7.41448,8.3881025 8.1937,11.0502415 3.96945,13.5612575 -4.07079,2.419793 -12.08828,10.721091 -14.80868,15.332903 C 180.04027,39.997304 173,57.259065 173,60.588873 c 0,2.046657 0.91663,4.365022 2.41394,6.105364 4.53976,5.276656 15.14559,2.876647 17.53137,-3.967201 1.91647,-5.497592 4.82474,-7.727035 10.07978,-7.727035 5.67385,0 10.70589,-1.581239 13.72491,-4.312837 2.75326,-2.491141 2.89016,-1.249271 0.32587,2.956105 C 214.91977,57.17921 214.69602,57.352096 199.5,67.223234 180.61021,79.493802 165.87393,96.283236 161.29607,110.75 L 159.63476,116 H 79.817378 -2.5977783e-8 Z M 18.5,110.10996 c 4.627625,-2.13579 7.916626,-5.42189 9.433388,-9.42506 C 28.617845,98.878419 29,84.815605 29,61.434901 v -36.4349 h -7 -7 v 35.491526 c 0,34.408519 -0.06103,35.529639 -2,36.740547 -1.679558,1.048901 -2,2.332027 -2,8.008476 0,7.71119 0.557889,8.0734 7.5,4.86941 z M 50,101 v -6.999999 h 3.45431 3.45431 L 57.20431,100.75 57.5,107.5 l 6.75,0.29569 6.75,0.29569 V 79.005853 C 71,45.427123 70.753309,44.283894 62.458621,39.422884 54.024228,34.48 43.000691,37.61217 38.248949,46.301694 c -1.522025,2.78333 -1.790638,6.810908 -2.070251,31.041306 -0.176716,15.313649 -0.07834,28.47615 0.218615,29.25 0.387808,1.01061 2.379987,1.407 7.071302,1.407 L 50,108 Z m 0,-33.808869 c 0,-13.614588 0.890683,-16.74291 4.566097,-16.037381 1.787984,0.343219 1.954838,1.445491 2.21136,14.60874 l 0.277456,14.237511 H 53.527457 50 Z m 45,30.30887 c 0,-10.389133 0.0251,-10.5 2.377555,-10.5 3.523875,0 4.280835,1.572446 5.656335,11.75 L 104.28403,108 h 6.85799 c 4.82928,0 6.85267,-0.36977 6.84004,-1.25 -0.0806,-5.61868 -3.23094,-20.506647 -4.95898,-23.435452 l -2.10757,-3.572059 2.04237,-5.121244 C 114.54427,70.643372 119,44.380376 119,39.007758 c 0,-1.176355 -12.64179,-1.396368 -13.36108,-0.232532 -0.26351,0.426373 -1.47125,7.738873 -2.68386,16.25 -1.21262,8.511126 -2.65367,16.037275 -3.202351,16.724775 -0.548679,0.6875 -1.842498,1.25 -2.875154,1.25 -1.765214,0 -1.877555,-1.047087 -1.877555,-17.5 v -17.5 h -7 -7 v 35 V 108 h 7 7 z m 63,3.540439 v -6.959554 l -8.25,-0.290443 -8.25,-0.290442 -0.31336,-3.25 -0.31336,-3.25 H 147.93664 155 v -7 -7 h -7.03498 -7.03499 l 0.28499,-10.25 0.28498,-10.25 8.25,-0.290442 8.25,-0.290443 v -6.985603 -6.985604 l -15.25,0.276046 -15.25,0.276046 -0.26378,33.492891 c -0.14508,18.42109 -0.0467,34.058588 0.21861,34.749998 C 127.8126,107.67522 131.82066,108 142.96862,108 H 158 Z"
       style="fill:#fbfbfb" />
    <path
       id="path3790"
       d="M 5.6666667,148.33333 C 5.3,147.96667 5,144.81667 5,141.33333 V 135 h 4 c 2.2,0 4,0.45 4,1 0,0.55 -1.35,1 -3,1 -2.3333333,0 -3,0.44444 -3,2 0,1.56547 0.7061049,2.02571 3.25,2.11831 l 3.25,0.11832 -3,0.63812 c -2.0997613,0.44663 -3.0958907,1.31136 -3.319551,2.88168 C 6.9088516,146.66332 7.3215315,147 9.930449,147 11.618702,147 13,147.45 13,148 c 0,1.10636 -6.2750761,1.39159 -7.3333333,0.33333 z M 18.5,148 c -0.359563,-0.58179 0.63661,-1 2.381966,-1 3.641324,0 5.167943,-1.96232 2.674762,-3.43814 -5.038569,-2.98255 -5.865687,-4.11605 -4.654665,-6.37886 C 20.126847,134.89447 26,133.97136 26,136.06739 c 0,0.58706 -0.7875,0.82233 -1.75,0.52283 -0.9625,-0.29951 -2.425,-0.0992 -3.25,0.44519 -1.251722,0.82593 -0.960571,1.44284 1.759015,3.72717 3.477723,2.92112 4.282819,6.62365 1.659198,7.63043 C 22.028181,149.31015 19.193373,149.1219 18.5,148 Z M 35,143.05902 C 35,137.66667 34.779942,137 33,137 c -1.1,0 -2,-0.45 -2,-1 0,-0.55 2.276558,-1 5.059017,-1 3.118034,0 4.821897,0.38367 4.440983,1 -0.339919,0.55 -1.266476,1 -2.059017,1 C 37.362898,137 37,138.37026 37,142.44098 c 0,2.99254 -0.45,5.7191 -1,6.05902 -0.624639,0.38605 -1,-1.65628 -1,-5.44098 z M 46.160037,142.18664 46,134.87328 l 3.149151,0.31336 c 3.875995,0.38569 5.834546,3.00856 4.200433,5.62519 -0.754273,1.20779 -0.813205,2.39524 -0.175431,3.53488 0.528216,0.94387 0.774762,2.48949 0.547879,3.43471 -0.362192,1.50893 -0.504094,1.4746 -1.163208,-0.28142 -0.41288,-1.1 -0.918399,-2.5625 -1.123373,-3.25 -0.204975,-0.6875 -1.258293,-1.25 -2.340708,-1.25 -1.470938,0 -2.069898,0.82089 -2.371347,3.25 -0.221827,1.7875 -0.475339,-0.041 -0.563359,-4.06336 z M 52,139.10699 c 0,-1.96715 -2.506085,-3.53028 -4.090242,-2.55122 C 47.409391,136.86502 47,137.99148 47,139.05902 47,140.46273 47.692005,141 49.5,141 c 1.786235,0 2.5,-0.54047 2.5,-1.89301 z m 7.059444,9.14301 c 0.187421,-2.36469 4.624267,-12.65915 5.592204,-12.97514 0.663559,-0.21662 2.08453,2.42736 3.352788,6.23847 2.171742,6.52609 2.133648,10.0786 -0.05653,5.27168 -0.853599,-1.87344 -1.703844,-2.36316 -3.50509,-2.01883 -1.307964,0.25003 -2.647998,1.30493 -2.977854,2.34421 -0.569904,1.79561 -2.531154,2.72475 -2.405518,1.13961 z m 7.22623,-7.26558 C 65.722509,138.83087 64,137.22928 64,138.8592 c 0,0.53747 -0.273145,1.68903 -0.606989,2.55901 -0.429634,1.11961 -0.01871,1.58179 1.406381,1.58179 1.526228,0 1.885839,-0.48768 1.486282,-2.01558 z M 77,143 c 0,-5.33333 -0.222222,-6 -2,-6 -1.1,0 -2,-0.45 -2,-1 0,-0.55 2.25,-1 5,-1 2.75,0 5,0.45 5,1 0,0.55 -0.9,1 -2,1 -1.777778,0 -2,0.66667 -2,6 0,3.33333 -0.444444,6 -1,6 -0.555556,0 -1,-2.66667 -1,-6 z m 11,-1 v -7 h 3.5 c 1.925,0 3.5,0.45 3.5,1 0,0.55 -1.125,1 -2.5,1 -3.677491,0 -3.460293,3.72168 0.25,4.28375 l 2.75,0.41659 -2.75,0.14983 C 90.523289,141.97149 90,142.47572 90,144.5 c 0,2 0.5,2.5 2.5,2.5 1.375,0 2.5,0.45 2.5,1 0,0.55 -1.575,1 -3.5,1 H 88 Z m 14.11469,4.41867 c -2.65659,-3.3773 -2.666513,-5.44742 -0.0421,-8.78381 1.5188,-1.93084 2.98837,-2.63486 5.5,-2.63486 1.88508,0 3.42742,0.49814 3.42742,1.10699 0,0.60884 -0.67891,0.84647 -1.50868,0.52805 -4.47307,-1.71647 -8.89444,3.8747 -6.54117,8.27182 1.54883,2.894 7.04985,2.96668 7.04985,0.0931 0,-1.14476 -0.66667,-2 -1.55902,-2 -0.85746,0 -1.30701,-0.40775 -0.999,-0.90612 0.30801,-0.49837 1.48369,-0.66457 2.61263,-0.36935 1.61032,0.42111 1.98719,1.20894 1.749,3.65612 -0.27233,2.79802 -0.67809,3.15062 -3.93892,3.42288 -2.95413,0.24665 -4.03157,-0.20023 -5.75,-2.38486 z m 15.55198,1.91466 C 116.59046,147.25713 116.89689,135 118,135 c 0.57143,0 1,3 1,7 0,7.03861 -0.10923,7.55744 -1.33333,6.33333 z M 125,148.19417 C 125,145.6794 129.37821,135 130.40918,135 c 0.67407,0 2.04064,2.5875 3.03684,5.75 0.99619,3.1625 2.02652,6.3125 2.28961,7 0.26309,0.6875 0.0327,1.25 -0.51201,1.25 -0.5447,0 -1.22571,-0.9 -1.51337,-2 -0.35933,-1.37408 -1.36401,-2 -3.21025,-2 -1.84624,0 -2.85092,0.62592 -3.21025,2 C 126.78708,148.9222 125,149.85422 125,148.19417 Z m 6.98469,-6.44417 c -0.008,-0.6875 -0.3958,-1.85023 -0.86084,-2.58385 -0.67448,-1.06402 -0.97482,-0.9969 -1.48469,0.33179 C 128.64633,142.08523 128.87118,143 130.5,143 c 0.825,0 1.49311,-0.5625 1.48469,-1.25 z M 141,148 c 0,-0.55 1.35,-1 3,-1 3.83389,0 4.14245,-3.15844 0.47194,-4.83083 -3.10815,-1.41617 -4.10048,-3.7069 -2.46137,-5.6819 C 143.3092,134.92251 148,134.40728 148,135.8294 c 0,0.45617 -0.99846,0.79367 -2.21879,0.75 -3.33875,-0.11948 -3.21397,2.69125 0.20527,4.62409 C 150.88096,143.97025 149.4704,149 143.8,149 c -1.54,0 -2.8,-0.45 -2.8,-1 z m 29,-6 v -7 h 3.84501 C 178.642,135 181,137.39658 181,142.27204 181,146.58716 178.23048,149 173.27749,149 H 170 Z m 8.50352,2.63498 c 1.96551,-2.99976 0.62197,-7.1074 -2.60034,-7.95005 -3.32775,-0.87023 -3.90318,-0.078 -3.90318,5.37409 0,4.59145 0.17522,4.94098 2.47695,4.94098 1.50089,0 3.08758,-0.93195 4.02657,-2.36502 z M 187,142 v -7 h 3.5 c 1.925,0 3.5,0.45 3.5,1 0,0.55 -1.125,1 -2.5,1 -3.67749,0 -3.46029,3.72168 0.25,4.28375 l 2.75,0.41659 -2.75,0.14983 c -2.22671,0.12132 -2.75,0.62555 -2.75,2.64983 0,2.11111 0.46667,2.5 3,2.5 1.65,0 3,0.45 3,1 0,0.55 -1.8,1 -4,1 h -4 z m 28.35815,3.25 c 0.34091,-2.0625 0.62479,-5.2125 0.63084,-7 0.0132,-3.90232 2.48597,-4.47807 3.41058,-0.7941 0.33902,1.35074 1.10372,3.71324 1.69934,5.25 l 1.08295,2.7941 1.99887,-5.3034 c 1.10904,-2.94249 2.51536,-5.13285 3.15908,-4.9203 0.69029,0.22793 1.28207,3.18593 1.46112,7.3034 0.33626,7.73294 -1.45263,8.11119 -1.9878,0.4203 l -0.31313,-4.5 -1.83037,5.25 c -1.0067,2.8875 -2.18572,5.25 -2.62004,5.25 -0.43432,0 -1.35988,-2.03659 -2.0568,-4.52576 C 218.22907,138.17486 217,137.95587 217,143.94098 217,147.03722 216.56126,149 215.86916,149 c -0.75028,0 -0.92225,-1.262 -0.51101,-3.75 z m 19.06922,2 c 1.9085,-5.94125 4.4875,-11.72162 5.35946,-12.01228 1.12012,-0.37337 5.76649,12.5423 4.84394,13.46485 -0.31615,0.31614 -1.0049,-0.55641 -1.53057,-1.93902 -0.76043,-2.00008 -1.47481,-2.41459 -3.49563,-2.02829 -1.39693,0.26704 -2.80975,1.33585 -3.13961,2.37513 -0.32985,1.03929 -1.04974,1.88961 -1.59974,1.88961 -0.55,0 -0.74703,-0.7875 -0.43785,-1.75 z m 6.8583,-6.26558 C 240.72251,138.83087 239,137.22928 239,138.8592 c 0,0.53747 -0.27314,1.68903 -0.60699,2.55901 -0.42963,1.11961 -0.0187,1.58179 1.40638,1.58179 1.52623,0 1.88584,-0.48768 1.48628,-2.01558 z M 251,142 c 0,-6.73687 0.0909,-7 2.41821,-7 1.33002,0 3.13002,0.27314 4,0.60699 1.70592,0.65462 2.17818,4.90639 0.64988,5.85093 -0.54109,0.33441 -0.33398,1.72214 0.49384,3.30902 1.65721,3.17675 1.79093,4.23306 0.5359,4.23306 -0.4962,0 -1.37279,-1.35 -1.94799,-3 -0.57519,-1.65 -1.74421,-3 -2.59782,-3 -1.0578,0 -1.55202,0.95531 -1.55202,3 0,1.65 -0.45,3 -1,3 -0.57143,0 -1,-3 -1,-7 z m 6.52707,-2.0438 C 258.33371,138.65103 256.22322,136 254.37756,136 253.57483,136 253,137.04321 253,138.5 c 0,1.808 0.53727,2.5 1.94098,2.5 1.06754,0 2.23128,-0.46971 2.58609,-1.0438 z M 265,142 c 0,-4 0.42857,-7 1,-7 0.55,0 1.01211,1.4625 1.0269,3.25 l 0.0269,3.25 2.7231,-3.25901 c 3.43808,-4.11471 5.08526,-4.26053 2.18952,-0.19383 l -2.16977,3.04716 2.61586,3.95284 c 1.43873,2.17406 2.17571,3.95284 1.63773,3.95284 -0.53798,0 -2.04675,-1.57261 -3.35284,-3.49468 C 268.08318,141.65814 267,141.85189 267,146.16667 267,147.725 266.55,149 266,149 c -0.57143,0 -1,-3 -1,-7 z m 15,0 v -7 h 3.5 c 1.925,0 3.5,0.45 3.5,1 0,0.55 -1.383,1 -3.07332,1 -4.1987,0 -3.70514,3.32044 0.58187,3.9146 l 2.99145,0.41461 -3,0.59182 c -2.11821,0.41788 -3.09393,1.25128 -3.31955,2.8354 -0.2716,1.90689 0.14108,2.24357 2.75,2.24357 1.68825,0 3.06955,0.45 3.06955,1 0,0.55 -1.575,1 -3.5,1 H 280 Z m 16,1 c 0,-5.33333 -0.22222,-6 -2,-6 -1.1,0 -2,-0.45 -2,-1 0,-0.55 2.25,-1 5,-1 2.75,0 5,0.45 5,1 0,0.55 -0.9,1 -2,1 -1.77778,0 -2,0.66667 -2,6 0,3.33333 -0.44444,6 -1,6 -0.55556,0 -1,-2.66667 -1,-6 z m 11.33621,-1 c 0,-4.125 0.17651,-5.8125 0.39226,-3.75 0.21574,2.0625 0.21574,5.4375 0,7.5 -0.21575,2.0625 -0.39226,0.375 -0.39226,-3.75 z M 315,142 c 0,-3.85 0.40309,-7 0.89575,-7 0.49267,0 2.40517,2.35968 4.25,5.24372 l 3.35425,5.24373 0.587,-5.49373 0.58701,-5.49372 0.16299,7.25 c 0.0897,3.9875 -0.194,7.25 -0.63032,7.25 -0.43633,0 -2.12383,-2.24107 -3.75,-4.98016 -1.62618,-2.73908 -3.18168,-4.98936 -3.45668,-5.00062 -0.275,-0.0112 -0.34407,2.22982 -0.15349,4.98016 0.21975,3.17119 -0.0546,5.00062 -0.75,5.00062 C 315.40559,149 315,146.41075 315,142 Z m 18.05896,5.05896 C 330.42943,144.42943 330.40111,139.59889 333,137 c 2.15183,-2.15183 7.44702,-2.70376 8.56621,-0.89287 0.46275,0.74875 -0.0196,0.88376 -1.48994,0.41708 C 336.8599,135.50337 333,138.39374 333,141.82305 c 0,3.37888 1.63241,5.17695 4.7,5.17695 1.6,0 2.3,-0.58333 2.3,-1.91667 0,-1.05416 -0.5625,-2.11756 -1.25,-2.36309 -0.6875,-0.24554 -0.97691,-0.74363 -0.64313,-1.10687 0.33378,-0.36325 1.37051,-0.36741 2.30384,-0.009 1.19918,0.46017 1.60784,1.5671 1.39313,3.77354 -0.26297,2.70236 -0.73307,3.16391 -3.49488,3.43131 -2.18828,0.21187 -3.83805,-0.33805 -5.25,-1.75 z M 363,142 v -7 l 3.75,0.0153 c 4.32589,0.0177 5.5006,0.63007 7.1245,3.71417 C 376.44539,143.61211 372.46002,149 366.27749,149 H 363 Z m 9.04985,2.90686 c 1.47277,-2.7519 0.44535,-6.57147 -2.1398,-7.955 C 366.367,135.05568 365,136.45239 365,141.96862 c 0,4.91049 0.0712,5.03138 2.96482,5.03138 1.98533,0 3.3349,-0.69151 4.08503,-2.09314 z M 380,142 c 0,-4 0.42857,-7 1,-7 0.57143,0 1,3 1,7 0,4 -0.42857,7 -1,7 -0.57143,0 -1,-3 -1,-7 z m 10.25,5.47775 c -3.15077,-2.22817 -3.16712,-8.72196 -0.0275,-10.92105 2.55605,-1.79032 7.77749,-2.09224 7.77749,-0.44971 0,0.61539 -0.7287,0.82736 -1.6409,0.47731 -2.62828,-1.00856 -6.3591,2.06496 -6.3591,5.23875 0,3.37888 1.63241,5.17695 4.7,5.17695 1.63333,0 2.3,-0.57971 2.3,-2 0,-1.14476 -0.66667,-2 -1.55902,-2 -0.85746,0 -1.30701,-0.40775 -0.999,-0.90612 0.30801,-0.49837 1.48369,-0.66457 2.61263,-0.36935 1.61032,0.42111 1.98719,1.20894 1.749,3.65612 -0.25839,2.65471 -0.75047,3.16172 -3.30361,3.40381 -1.65,0.15645 -4.0125,-0.43157 -5.25,-1.30671 z M 405,142 c 0,-4 0.42857,-7 1,-7 0.57143,0 1,3 1,7 0,4 -0.42857,7 -1,7 -0.57143,0 -1,-3 -1,-7 z m 11,1.05902 C 416,137.72808 415.76676,137 414.05902,137 c -1.06754,0 -2.2191,-0.45 -2.55902,-1 -0.38401,-0.62134 1.50929,-1 5,-1 3.49071,0 5.38401,0.37866 5,1 -0.33992,0.55 -1.26648,1 -2.05902,1 -1.07808,0 -1.44098,1.37026 -1.44098,5.44098 0,2.99254 -0.45,5.7191 -1,6.05902 -0.62464,0.38605 -1,-1.65628 -1,-5.44098 z m 8.05944,5.19098 c 0.18742,-2.36469 4.62427,-12.65915 5.59221,-12.97514 0.66356,-0.21662 2.08453,2.42736 3.35279,6.23847 2.17174,6.52609 2.13364,10.0786 -0.0565,5.27168 -0.8536,-1.87344 -1.70385,-2.36316 -3.50509,-2.01883 -1.30797,0.25003 -2.648,1.30493 -2.97786,2.34421 -0.5699,1.79561 -2.53115,2.72475 -2.40552,1.13961 z m 7.22623,-7.26558 C 430.72251,138.83087 429,137.22928 429,138.8592 c 0,0.53747 -0.27314,1.68903 -0.60699,2.55901 -0.42963,1.11961 -0.0187,1.58179 1.40638,1.58179 1.52623,0 1.88584,-0.48768 1.48628,-2.01558 z M 441,142 c 0,-4 0.42857,-7 1,-7 0.55556,0 1,2.66667 1,6 0,5.73333 0.11111,6 2.5,6 1.375,0 2.5,0.45 2.5,1 0,0.55 -1.575,1 -3.5,1 H 441 Z M 0.63837357,117.5 C 0.12968953,116.17439 9.3387226,116 79.848763,116 h 79.785997 l 1.66131,-5.25 C 165.87393,96.283236 180.61021,79.493802 199.5,67.223234 c 15.19602,-9.871138 15.41977,-10.044024 17.57587,-13.579965 2.56429,-4.205376 2.42739,-5.447246 -0.32587,-2.956105 -3.01902,2.731598 -8.05106,4.312837 -13.72491,4.312837 -5.25504,0 -8.16331,2.229443 -10.07978,7.727035 -1.44374,4.141512 -5.34656,6.569941 -10.73889,6.681985 -3.61875,0.07519 -4.79743,-0.395894 -6.79248,-2.714784 C 173.91663,64.953895 173,62.63553 173,60.588873 c 0,-3.329808 7.04027,-20.591569 11.44132,-28.052507 2.7204,-4.611812 10.73789,-12.91311 14.80868,-15.332903 4.22082,-2.508971 3.39555,-5.489275 -3.58277,-12.9384819 C 194.00044,2.4857203 192.86441,0.80225905 193.14271,0.52395601 195.03624,-1.3695759 215,7.3807584 215,10.104247 c 0,0.492665 1.03665,0.895754 2.30366,0.895754 7.17387,0 22.31128,11.98738 27.4124,21.707995 5.67959,10.822951 6.79473,15.635122 6.67205,28.792005 -0.092,9.871483 -0.58042,13.556767 -2.75334,20.776628 -2.54765,8.464965 -9.8831,24.394261 -13.75871,29.877741 -1.03183,1.4599 -1.87606,2.9204 -1.87606,3.24554 0,0.32514 48.67502,0.70567 108.1667,0.84563 85.4627,0.20105 108.25415,0.51683 108.58333,1.50446 0.33166,0.99504 -22.44142,1.25 -111.65134,1.25 H 226.03071 l 3.7753,-4.98803 c 2.07641,-2.74342 5.67031,-8.74197 7.98644,-13.33012 12.34205,-24.449084 14.26387,-45.543389 5.74928,-63.105377 -4.39784,-9.070877 -8.09855,-13.44727 -15.61607,-18.46728 -7.8838,-5.264599 -11.82244,-6.030946 -15.93725,-3.100938 l -3.10762,2.21282 1.49835,-3.58606 c 1.47065,-3.519767 1.44644,-3.623023 -1.30979,-5.5856314 -1.54447,-1.0997646 -4.03089,-2.4644606 -5.52536,-3.0326577 l -2.71722,-1.0330856 2.08661,3.3762141 c 3.38552,5.4778776 2.79505,7.8257246 -3.0807,12.2496276 -8.10124,6.099499 -12.49797,12.155517 -18.3799,25.316319 -6.63292,14.841137 -6.85858,17.246474 -1.86445,19.873155 2.19685,1.155444 5.99568,0.631663 8.24764,-1.137182 0.73479,-0.577149 2.25558,-3.005744 3.37955,-5.396878 2.33661,-4.970935 5.95626,-7.262357 11.48482,-7.270472 13.1238,-0.01926 16.94313,-5.997937 12.35352,-19.337873 -1.07038,-3.111102 -1.61545,-5.65655 -1.21129,-5.65655 1.30082,0 7.32026,10.788087 8.20278,14.701079 0.95387,4.229352 -0.0659,10.155132 -2.3466,13.635938 C 217.55877,58.603043 212.88963,62.2719 202,69.244117 183.47557,81.104611 166.94735,100.39009 163.74183,113.88458 L 162.5267,119 H 81.870338 C 11.098286,119 1.1434383,118.81618 0.63837357,117.5 Z M 11,105.24055 c 0,-5.676449 0.320442,-6.959575 2,-8.008476 1.938971,-1.210908 2,-2.332028 2,-36.740547 V 25.000001 h 7 7 v 36.4349 c 0,23.380704 -0.382155,37.443518 -1.066612,39.249999 -1.516762,4.00317 -4.805763,7.28927 -9.433388,9.42506 -6.942111,3.20399 -7.5,2.84178 -7.5,-4.86941 z M 36.397313,106.593 C 36.100359,105.81915 36.001982,92.656649 36.178698,77.343 36.458311,53.112602 36.726924,49.085024 38.248949,46.301694 43.000691,37.61217 54.024228,34.48 62.458621,39.422884 70.753309,44.283894 71,45.427123 71,79.005853 V 108.09138 L 64.25,107.79569 57.5,107.5 57.20431,100.75 56.90862,94.000001 H 53.45431 50 V 101 v 7 h -6.531385 c -4.691315,0 -6.683494,-0.39639 -7.071302,-1.407 z M 56.777457,65.76249 C 56.520935,52.599241 56.354081,51.496969 54.566097,51.15375 50.890683,50.448221 50,53.576543 50,67.191131 v 12.80887 h 3.527457 3.527456 z M 81,73.000001 v -35 h 7 7 v 17.5 c 0,16.452913 0.112341,17.5 1.877555,17.5 1.032656,0 2.326475,-0.5625 2.875154,-1.25 0.548681,-0.6875 1.989731,-8.213649 3.202351,-16.724775 1.21261,-8.511127 2.42035,-15.823627 2.68386,-16.25 C 106.35821,37.61139 119,37.831403 119,39.007758 c 0,5.372618 -4.45573,31.635614 -6.04212,35.613487 l -2.04237,5.121244 2.10757,3.572059 c 1.72804,2.928805 4.87836,17.816772 4.95898,23.435452 0.0126,0.88023 -2.01076,1.25 -6.84004,1.25 h -6.85799 l -1.25014,-9.249999 c -1.3755,-10.177554 -2.13246,-11.75 -5.656335,-11.75 -2.352451,0 -2.377555,0.110867 -2.377555,10.5 V 108 h -7 -7 z m 46.45483,33.742889 c -0.26532,-0.69141 -0.36369,-16.328908 -0.21861,-34.749998 L 127.5,38.500001 142.75,38.223955 158,37.947909 v 6.985604 6.985603 l -8.25,0.290443 -8.25,0.290442 -0.28498,10.25 -0.28499,10.25 H 147.96502 155 v 7 7 h -7.06336 -7.06336 l 0.31336,3.25 0.31336,3.25 8.25,0.290442 8.25,0.290443 V 101.04044 108 h -15.03138 c -11.14796,0 -15.15602,-0.32478 -15.51379,-1.25711 z M 260,78.565101 c 0,-17.659309 0.40307,-29.501701 1.06362,-31.25 3.49659,-9.254494 14.21893,-13.730842 23.55054,-9.831846 3.13768,1.311004 3.88302,1.311004 6.41822,0 6.24975,-3.231868 15.49568,-1.209695 20.23801,4.42624 4.33888,5.156469 4.78286,8.885042 4.4961,37.758595 L 315.5,106.5 l -6.75,0.29569 -6.75,0.29569 V 79.668136 C 302,50.620765 301.79206,49.316722 297.29804,50.180405 295.63281,50.500438 295.46307,52.593126 295,78.512981 L 294.5,106.5 l -6.75,0.29569 -6.75,0.29569 -0.0153,-27.295689 c -0.008,-15.01263 -0.39682,-27.897561 -0.86309,-28.633182 -0.46628,-0.735621 -1.92189,-1.185621 -3.23469,-1 l -2.38692,0.337492 -0.26557,28.25 L 273.96885,107 H 266.98443 260 Z m 65.66667,27.768229 c -1.01238,-1.01238 -0.74975,-52.269388 0.2908,-56.755935 1.03844,-4.477388 3.43912,-8.037742 7.42765,-11.015605 2.1515,-1.606325 4.25366,-2.061789 9.51605,-2.061789 5.79353,0 7.25694,0.383218 10.28595,2.693554 C 359.79519,44.233776 360,45.398804 360,77.94682 v 29.14456 l -6.75,-0.29569 -6.75,-0.29569 -0.29569,-6.749999 -0.29569,-6.75 H 342.45431 339 V 100 v 7 h -6.33333 c -3.48334,0 -6.63334,-0.3 -7,-0.66667 z M 345.77746,64.76249 C 345.52093,51.599241 345.35408,50.496969 343.5661,50.15375 339.93453,49.456637 339,52.602504 339,65.524464 c 0,6.678212 0.3,12.442204 0.66667,12.80887 0.36666,0.366667 1.95402,0.666667 3.52745,0.666667 h 2.86079 z m 33.88921,41.57084 C 379.3,105.96667 379,93.366668 379,78.333334 V 51.000001 h -5 -5 v -7.023614 -7.023614 l 17.25,0.273614 17.25,0.273614 0.29569,6.75 0.29569,6.75 H 398.54569 393 v 28 V 107 h -6.33333 c -3.48334,0 -6.63334,-0.3 -7,-0.66667 z M 410,72.026047 V 37.000001 h 15.5 15.5 v 7 7 h -8.5 -8.5 v 10.5 10.5 h 7 7 v 7 7 h -7 -7 v 3.5 3.5 h 8.54569 8.54569 l -0.29569,6.75 L 440.5,106.5 425.25,106.77605 410,107.05209 Z"
       style="fill:#525252" />
  </g>
</svg>
